<svg xmlns="http://www.w3.org/2000/svg" width="440" height="280" viewBox="0 0 440 280" role="img" aria-labelledby="title desc">
  <title>A11y Garden small promo tile</title>
  <desc>Brand tile with local accessibility scan cards and an A11y Garden icon.</desc>
  <rect width="440" height="280" fill="#0f6b4d"/>
  <rect x="28" y="28" width="384" height="224" rx="24" fill="#eef8f2"/>
  <rect x="56" y="58" width="174" height="26" rx="7" fill="#0f6b4d"/>
  <rect x="56" y="102" width="120" height="18" rx="9" fill="#dcebe3"/>
  <rect x="56" y="134" width="150" height="18" rx="9" fill="#dcebe3"/>
  <rect x="56" y="166" width="98" height="18" rx="9" fill="#dcebe3"/>
  <rect x="256" y="58" width="96" height="96" rx="22" fill="#0f6b4d"/>
  <path d="M304 76c13 0 23 10 23 23 0 15-12 28-23 41-11-13-23-26-23-41 0-13 10-23 23-23Z" fill="#eef8f2"/>
  <circle cx="304" cy="99" r="9" fill="#0f6b4d"/>
  <path d="M285 124c13 3 25 3 38 0" fill="none" stroke="#62d59e" stroke-width="8" stroke-linecap="round"/>
  <rect x="258" y="176" width="42" height="42" rx="10" fill="#ffebe8"/>
  <rect x="310" y="176" width="42" height="42" rx="10" fill="#fff4dd"/>
  <rect x="362" y="176" width="22" height="42" rx="10" fill="#dcebe3"/>
</svg>
